<svg width="142" height="200" viewBox="0 0 142 200" fill="none" xmlns="http://www.w3.org/2000/svg">
<mask id="mask0_3582_130" style="mask-type:luminance" maskUnits="userSpaceOnUse" x="0" y="0" width="142" height="142">
<path d="M108.101 10.4984C74.7022 -10.0077 31.0029 0.445342 10.4972 33.8458C-10.0077 67.2423 0.446744 110.938 33.8439 131.445C67.2467 151.952 110.939 141.495 131.447 108.1C151.948 74.7008 141.504 31.0019 108.101 10.4984ZM101.312 73.7155L67.1087 121.706C62.0688 128.776 53.9403 129.896 47.4457 127.06C40.8844 124.376 36.0261 117.761 37.5918 109.219L48.2082 51.2534C53.4762 22.4981 75.4575 15.693 91.8279 22.1328C107.856 29.4006 118.28 49.9108 101.312 73.7155Z" fill="white"/>
</mask>
<g mask="url(#mask0_3582_130)">
<path d="M108.101 10.4984C74.7022 -10.0077 31.0029 0.445342 10.4972 33.8458C-10.0077 67.2423 0.446744 110.938 33.8439 131.445C67.2467 151.952 110.939 141.495 131.447 108.1C151.948 74.7008 141.504 31.0019 108.101 10.4984ZM101.312 73.7155L67.1087 121.706C62.0688 128.776 53.9403 129.896 47.4457 127.06C40.8844 124.376 36.0261 117.761 37.5918 109.219L48.2082 51.2534C53.4762 22.4981 75.4575 15.693 91.8279 22.1328C107.856 29.4006 118.28 49.9108 101.312 73.7155Z" fill="#9C0054"/>
<path d="M66.7334 141.95V141.816H65.0001V141.683H63.4001V141.55H62.3335V141.416H61.2668V141.283H60.3335V141.15H59.5335V141.016H58.7336V140.883H57.9336V140.75H57.2669V140.616H56.6003V140.483H55.9336V140.35H55.4003V140.216H54.867V140.083H54.2003V139.95H53.667V139.816H53.1337V139.683H52.6004V139.55H52.2004V139.416H51.6671V139.283H51.2671V139.15H50.7338V139.016H50.3338V138.883H49.8005V138.75H49.4005V138.616H49.0005V138.483H48.6005V138.35H48.2005V138.216H47.8005V138.083H47.5338V137.95H47.1339V137.816H46.7339V137.683H46.3339V137.55H45.9339V137.416H45.6672V137.283H45.2672V137.15H45.0006V137.016H44.6006V136.883H44.3339V136.75H43.9339V136.617H43.6673V136.483H43.2673V136.35H43.0006V136.217H42.734V136.083H42.4673V135.95H42.0673V135.817H41.8007V135.683H41.534V135.55H41.2673V135.417H41.0007V135.283H40.6007V135.15H40.334V135.017H40.0674V134.883H39.8007V134.75H39.534V134.617H39.2674V134.483H39.0007V134.35H38.7341V134.217H38.4674V134.083H38.2007V133.95H37.9341V133.817H37.6674V133.683H37.5341V133.55H37.2674V133.417H37.0008V133.283H36.7341V133.15H36.4675V133.017H36.2008V132.883H36.0675V132.75H35.8008V132.617H35.5341V132.483H35.2675V132.35H35.1342V132.217H34.8675V132.083H34.6008V131.95H34.3342V131.817H34.2008V131.683H33.9342V131.55H33.6675V131.417H33.5342V131.283H33.2675V131.15H33.1342V131.017H32.8675V130.883H32.7342V130.75H32.4675V130.617H32.3342V130.483H32.0676V130.35H31.8009V130.217H31.6676V130.083H31.4009V129.95H31.2676V129.817H31.0009V129.683H30.8676V129.55H30.6009V129.417H30.4676V129.283H30.3343V129.15H30.0676V129.017H29.9343V128.883H29.8009V128.75H29.5343V128.617H29.401V128.483H29.1343V128.35H29.001V128.217H28.8676V128.083H28.601V127.95H28.4676V127.817H28.201V127.683H28.0677V127.55H27.9343V127.417H27.6677V127.283H27.5343V127.15H27.401V127.017H27.2677V126.883H27.001V126.75H26.8677V126.617H26.7344V126.483H26.601V126.35H26.3344V126.217H26.201V126.083H26.0677V125.95H25.9344V125.817H25.6677V125.683H25.5344V125.55H25.4011V125.417H25.2677V125.283H25.0011V125.15H24.8677V125.017H24.7344V124.883H24.6011V124.75H24.4677V124.617H24.3344V124.483H24.2011V124.35H24.0678V124.217H23.8011V124.083H23.6678V123.95H23.5344V123.817H23.4011V123.683H23.2678V123.55H23.1344V123.417H23.0011V123.284H22.8678V123.15H22.6011V123.017H22.4678V122.884H22.3345V122.75H22.2011V122.617H22.0678V122.484H21.9345V122.35H21.8011V122.217H21.6678V122.084H21.5345V121.95H21.4012V121.817H21.2678V121.684H21.1345V121.55H21.0012V121.417H20.8678V121.284H20.7345V121.15H20.6012V121.017H20.4678V120.884H20.3345V120.75H20.2012V120.617H20.0679V120.484H19.9345V120.35H19.8012V120.217H19.6679V120.084H19.5345V119.95H19.4012V119.817H19.2679V119.684H19.1345V119.55H19.0012V119.284H18.8679V119.15H18.7346V119.017H18.6012V118.884H18.4679V118.75H18.3346V118.617H18.2012V118.484H18.0679V118.35H17.9346V118.217H17.8012V118.084H17.6679V117.95H17.5346V117.817H17.4013V117.55H17.2679V117.417H17.1346V117.284H17.0013V117.15H16.8679V117.017H16.7346V116.75H16.6013V116.617H16.4679V116.484H16.3346V116.35H16.2013V116.217H16.068V115.95H15.9346V115.817H15.8013V115.684H15.668V115.55H15.5346V115.417H15.4013V115.15H15.268V115.017H15.1346V114.884H15.0013V114.617H14.868V114.484H14.7347V114.35H14.6013V114.084H14.468V113.95H14.3347V113.817H14.2013V113.55H14.068V113.417H13.9347V113.284H13.8013V113.017H13.668V112.884H13.5347V112.75H13.4014V112.484H13.268V112.35H13.1347V112.217H13.0014V111.95H12.868V111.817H12.7347V111.55H12.6014V111.417H12.468V111.15H12.3347V111.017H12.2014V110.75H12.0681V110.617H11.9347V110.35H11.8014V110.217H11.6681V109.951H11.5347V109.817H11.4014V109.551H11.2681V109.417H11.1347V109.151H11.0014V109.017H10.8681V108.751H10.7348V108.484H10.6014V108.351H10.4681V108.084H10.3348V107.817H10.2014V107.684H10.0681V107.417H9.93478V107.284H9.80145V107.017H9.66812V106.751H9.53479V106.617H9.40146V106.351H9.26813V106.084H9.1348V105.817H9.00147V105.551H8.86814V105.417H8.73481V105.151H8.60148V104.884H8.46815V104.617H8.33482V104.351H8.20149V104.084H8.06816V103.817H7.93483V103.684H7.8015V103.417H7.66817V103.151H7.53484V102.884H7.40151V102.484H7.26818V102.217H7.13485V101.951H7.00152V101.684H6.86819V101.417H6.73486V101.151H6.60153V100.884H6.4682V100.617H6.33487V100.351H6.20154V99.9508H6.06821V99.6841H5.93488V99.4174H5.80155V99.0175H5.66822V98.7508H5.53489V98.4841H5.40156V98.0841H5.26823V97.8175H5.1349V97.5508H5.00157V97.1508H4.86824V96.8842H4.73491V96.4842H4.60158V96.0842H4.46825V95.6842H4.33492V95.4175H4.20159V95.0176H4.06826V94.6176H3.93493V94.3509H3.8016V93.9509H3.66827V93.5509H3.53494V93.0176H3.40161V92.6176H3.26828V92.2176H3.13495V91.8176H3.00162V91.4176H2.86829V91.0177H2.73496V90.4843H2.60163V89.951H2.4683V89.4177H2.33497V89.0177H2.20164V88.4844H2.06831V87.9511H1.93498V87.4177H1.80165V86.7511H1.66832V86.2178H1.53499V85.5511H1.40166V84.8845H1.26833V84.3512H1.135V83.5512H1.00167V82.7512H0.868339V81.9512H0.735009V81.1512H0.601679V80.0846H0.468349V78.8846H0.335019V77.818H0.201689V76.0847H0.0683594V65.8183H0.201689V64.085H0.335019V62.885H0.468349V61.8184H0.601679V60.7517H0.735009V59.8184H0.868339V59.1518H1.00167V58.3518H1.135V57.5518H1.26833V56.8852H1.40166V56.2185H1.53499V55.6852H1.66832V55.0186H1.80165V54.4852H1.93498V53.9519H2.06831V53.2853H2.20164V52.8853H2.33497V52.352H2.4683V51.952H2.60163V51.4186H2.73496V51.0187H2.86829V50.4853H3.00162V50.0853H3.13495V49.6854H3.26828V49.2854H3.40161V48.8854H3.53494V48.4854H3.66827V48.0854H3.8016V47.6854H3.93493V47.2854H4.06826V46.8854H4.20159V46.4854H4.33492V46.0854H4.46825V45.8188H4.60158V45.4188H4.73491V45.1521H4.86824V44.7521H5.00157V44.4855H5.1349V44.0855H5.26823V43.8188H5.40156V43.4188H5.53489V43.1522H5.66822V42.8855H5.80155V42.4855H5.93488V42.2189H6.06821V41.9522H6.20154V41.6856H6.33487V41.4189H6.4682V41.0189H6.60153V40.7522H6.73486V40.4856H6.86819V40.2189H7.00152V39.9523H7.13485V39.6856H7.26818V39.4189H7.40151V39.1523H7.53484V38.8856H7.66817V38.619H7.8015V38.3523H7.93483V38.0856H8.06816V37.819H8.20149V37.5523H8.33482V37.2857H8.46815V37.019H8.60148V36.7523H8.73481V36.619H8.86814V36.3524H9.00147V36.0857H9.1348V35.819H9.26813V35.6857H9.40146V35.419H9.53479V35.1524H9.66812V34.8857H9.80145V34.7524H9.93478V34.4857H10.0681V34.2191H10.2014V34.0857H10.3348V33.8191H10.4681V33.5524H10.6014V33.4191H10.7348V33.1524H10.8681V33.0191H11.0014V32.7524H11.1347V32.6191H11.2681V32.3525H11.4014V32.2191H11.5347V31.9525H11.6681V31.8191H11.8014V31.5525H11.9347V31.2858H12.0681V31.1525H12.2014V30.8858H12.3347V30.7525H12.468V30.6192H12.6014V30.3525H12.7347V30.2192H12.868V29.9525H13.0014V29.8192H13.1347V29.6859H13.268V29.4192H13.4014V29.2859H13.5347V29.0192H13.668V28.8859H13.8013V28.7525H13.9347V28.4859H14.068V28.3526H14.2013V28.2192H14.3347V27.9526H14.468V27.8192H14.6013V27.6859H14.7347V27.4192H14.868V27.2859H15.0013V27.1526H15.1346V27.0193H15.268V26.7526H15.4013V26.6193H15.5346V26.4859H15.668V26.3526H15.8013V26.0859H15.9346V25.9526H16.068V25.8193H16.2013V25.686H16.3346V25.4193H16.4679V25.286H16.6013V25.1526H16.7346V25.0193H16.8679V24.886H17.0013V24.6193H17.1346V24.486H17.2679V24.3527H17.4013V24.2193H17.5346V24.086H17.6679V23.9527H17.8012V23.8193H17.9346V23.686H18.0679V23.4193H18.2012V23.286H18.3346V23.1527H18.4679V23.0194H18.6012V22.886H18.7346V22.7527H18.8679V22.6194H19.0012V22.486H19.1345V22.2194H19.2679V22.086H19.4012V21.9527H19.5345V21.8194H19.6679V21.6861H19.8012V21.5527H19.9345V21.4194H20.0679V21.2861H20.2012V21.1527H20.3345V21.0194H20.4678V20.8861H20.6012V20.7527H20.7345V20.6194H20.8678V20.4861H21.0012V20.3528H21.1345V20.2194H21.2678V20.0861H21.4012V19.9528H21.5345V19.8194H21.6678V19.6861H21.8011V19.5528H21.9345V19.4194H22.2011V19.2861H22.3345V19.1528H22.4678V19.0195H22.6011V18.8861H22.7345V18.7528H22.8678V18.6195H23.0011V18.4861H23.1344V18.3528H23.2678V18.2195H23.4011V18.0861H23.5344V17.9528H23.6678V17.8195H23.9344V17.6862H24.0678V17.5528H24.2011V17.4195H24.3344V17.2862H24.4677V17.1528H24.6011V17.0195H24.8677V16.8862H25.0011V16.7528H25.1344V16.6195H25.2677V16.4862H25.4011V16.3529H25.6677V16.2195H25.801V16.0862H25.9344V15.9529H26.0677V15.8195H26.201V15.6862H26.4677V15.5529H26.601V15.4195H26.7344V15.2862H26.8677V15.1529H27.1343V15.0196H27.2677V14.8862H27.401V14.7529H27.6677V14.6196H27.801V14.4862H27.9343V14.3529H28.0677V14.2196H28.3343V14.0862H28.4676V13.9529H28.601V13.8196H28.8676V13.6863H29.001V13.5529H29.1343V13.4196H29.401V13.2863H29.5343V13.1529H29.8009V13.0196H29.9343V12.8863H30.0676V12.7529H30.3343V12.6196H30.4676V12.4863H30.7343V12.353H30.8676V12.2196H31.1342V12.0863H31.2676V11.953H31.5342V11.8196H31.6676V11.6863H31.9342V11.553H32.0676V11.4196H32.3342V11.2863H32.4675V11.153H32.7342V11.0197H32.8675V10.8863H33.1342V10.753H33.4009V10.6197H33.5342V10.4863H33.8008V10.353H34.0675V10.2197H34.2008V10.0863H34.4675V9.95302H34.7342V9.81969H34.8675V9.68636H35.1342V9.55303H35.4008V9.4197H35.5341V9.28637H35.8008V9.15304H36.0675V9.01971H36.3341V8.88638H36.6008V8.75305H36.8674V8.61972H37.0008V8.48639H37.2674V8.35306H37.5341V8.21973H37.8008V8.0864H38.0674V7.95307H38.3341V7.81974H38.4674V7.68641H38.8674V7.55308H39.1341V7.41975H39.4007V7.28642H39.6674V7.15309H39.934V7.01976H40.2007V6.88643H40.4674V6.7531H40.734V6.61977H41.0007V6.48644H41.2673V6.35311H41.534V6.21978H41.934V6.08645H42.2006V5.95312H42.4673V5.81979H42.8673V5.68646H43.134V5.55313H43.4006V5.4198H43.8006V5.28647H44.0673V5.15314H44.3339V5.01981H44.7339V4.88648H45.1339V4.75315H45.4006V4.61982H45.8006V4.48649H46.2005V4.35316H46.4672V4.21983H46.8672V4.0865H47.2672V3.95317H47.5338V3.81984H47.9338V3.68651H48.3338V3.55318H48.8671V3.41985H49.2671V3.28652H49.6671V3.15319H50.0671V3.01986H50.4671V2.88653H50.8671V2.7532H51.4004V2.61987H51.9337V2.48654H52.3337V2.35321H52.867V2.21988H53.4004V2.08655H53.9337V1.95322H54.467V1.81989H55.0003V1.68656H55.667V1.55323H56.3336V1.4199H56.8669V1.28657H57.5336V1.15324H58.3336V1.01991H59.1336V0.88658H59.9335V0.75325H60.7335V0.61992H61.6668V0.48659H62.8668V0.35326H63.9334V0.21993H65.6667V0.0866003H76.4665V0.21993H78.1997V0.35326H79.2664V0.48659H80.333V0.61992H81.3997V0.75325H82.1996V0.88658H82.9996V1.01991H83.6663V1.15324H84.4663V1.28657H85.2662V1.4199H85.7996V1.55323H86.3329V1.68656H86.9995V1.81989H87.5328V1.95322H88.0662V2.08655H88.7328V2.21988H89.1328V2.35321H89.6661V2.48654H90.0661V2.61987H90.5994V2.7532H90.9994V2.88653H91.5327V3.01986H91.9327V3.15319H92.3327V3.28652H92.7327V3.41985H93.1327V3.55318H93.5327V3.68651H93.9327V3.81984H94.3327V3.95317H94.7327V4.0865H95.1327V4.21983H95.5326V4.35316H95.7993V4.48649H96.1993V4.61982H96.466V4.75315H96.8659V4.88648H97.2659V5.01981H97.5326V5.15314H97.9326V5.28647H98.1992V5.4198H98.5992V5.55313H98.8659V5.68646H99.1326V5.81979H99.3992V5.95312H99.7992V6.08645H100.066V6.21978H100.333V6.35311H100.599V6.48644H100.866V6.61977H101.266V6.7531H101.532V6.88643H101.799V7.01976H102.066V7.15309H102.332V7.28642H102.599V7.41975H102.866V7.55308H103.132V7.68641H103.399V7.81974H103.666V7.95307H103.932V8.0864H104.199V8.21973H104.332V8.35306H104.599V8.48639H104.866V8.61972H105.132V8.75305H105.399V8.88638H105.666V9.01971H105.799V9.15304H106.066V9.28637H106.332V9.4197H106.599V9.55303H106.866V9.68636H106.999V9.81969H107.266V9.95302H107.532V10.0863H107.666V10.2197H107.932V10.353H108.199V10.4863H108.332V10.6197H108.599V10.753H108.866V10.8863H108.999V11.0197H109.266V11.153H109.399V11.2863H109.666V11.4196H109.799V11.553H110.066V11.6863H110.199V11.8196H110.466V11.953H110.599V12.0863H110.866V12.2196H110.999V12.353H111.266V12.4863H111.399V12.6196H111.532V12.7529H111.799V12.8863H111.932V13.0196H112.199V13.1529H112.332V13.2863H112.466V13.4196H112.732V13.5529H112.866V13.6863H113.132V13.8196H113.266V13.9529H113.399V14.0862H113.666V14.2196H113.799V14.3529H113.932V14.4862H114.199V14.6196H114.332V14.7529H114.466V14.8862H114.732V15.0196H114.865V15.1529H114.999V15.2862H115.132V15.4195H115.399V15.5529H115.532V15.6862H115.665V15.8195H115.799V15.9529H116.065V16.0862H116.199V16.2195H116.332V16.3529H116.465V16.4862H116.599V16.6195H116.865V16.7528H116.999V16.8862H117.132V17.0195H117.265V17.1528H117.399V17.2862H117.532V17.4195H117.799V17.5528H117.932V17.6862H118.065V17.8195H118.199V17.9528H118.332V18.0861H118.465V18.2195H118.599V18.3528H118.732V18.4861H118.999V18.6195H119.132V18.7528H119.265V18.8861H119.399V19.0195H119.532V19.1528H119.665V19.2861H119.799V19.4194H119.932V19.5528H120.065V19.6861H120.199V19.8194H120.332V19.9528H120.465V20.0861H120.599V20.2194H120.732V20.3528H120.865V20.4861H120.999V20.6194H121.132V20.7527H121.265V20.8861H121.399V21.0194H121.532V21.1527H121.665V21.2861H121.799V21.4194H121.932V21.5527H122.065V21.6861H122.199V21.8194H122.332V21.9527H122.465V22.086H122.599V22.2194H122.732V22.3527H122.865V22.486H122.999V22.6194H123.132V22.7527H123.265V22.886H123.399V23.0194H123.532V23.286H123.665V23.4193H123.799V23.5527H123.932V23.686H124.065V23.8193H124.199V23.9527H124.332V24.086H124.465V24.2193H124.599V24.3527H124.732V24.6193H124.865V24.7526H124.999V24.886H125.132V25.0193H125.265V25.1526H125.399V25.4193H125.532V25.5526H125.665V25.686H125.799V25.8193H125.932V25.9526H126.065V26.2193H126.199V26.3526H126.332V26.4859H126.465V26.6193H126.599V26.7526H126.732V27.0193H126.865V27.1526H126.999V27.2859H127.132V27.5526H127.265V27.6859H127.399V27.8192H127.532V28.0859H127.665V28.2192H127.799V28.3526H127.932V28.6192H128.065V28.7525H128.198V28.8859H128.332V29.1525H128.465V29.2859H128.598V29.4192H128.732V29.6859H128.865V29.8192H128.998V30.0858H129.132V30.2192H129.265V30.4858H129.398V30.6192H129.532V30.8858H129.665V31.0192H129.798V31.2858H129.932V31.4191H130.065V31.5525H130.198V31.8191H130.332V31.9525H130.465V32.2191H130.598V32.3525H130.732V32.6191H130.865V32.8858H130.998V33.0191H131.132V33.2858H131.265V33.5524H131.398V33.6858H131.532V33.9524H131.665V34.0857H131.798V34.3524H131.932V34.6191H132.065V34.7524H132.198V35.0191H132.332V35.2857H132.465V35.419H132.598V35.6857H132.732V35.9524H132.865V36.219H132.998V36.4857H133.132V36.7523H133.265V36.8857H133.398V37.1523H133.532V37.419H133.665V37.6857H133.798V37.9523H133.932V38.219H134.065V38.3523H134.198V38.619H134.332V38.8856H134.465V39.2856H134.598V39.5523H134.732V39.8189H134.865V40.0856H134.998V40.3523H135.132V40.6189H135.265V40.8856H135.398V41.1522H135.532V41.4189H135.665V41.6856H135.798V42.0855H135.932V42.3522H136.065V42.6189H136.198V43.0189H136.332V43.2855H136.465V43.5522H136.598V43.9522H136.732V44.2188H136.865V44.6188H136.998V44.8855H137.132V45.2855H137.265V45.6855H137.398V45.9521H137.532V46.3521H137.665V46.7521H137.798V47.0188H137.932V47.4187H138.065V47.8187H138.198V48.2187H138.332V48.6187H138.465V49.0187H138.598V49.4187H138.732V49.952H138.865V50.352H138.998V50.752H139.132V51.152H139.265V51.6853H139.398V52.2186H139.532V52.6186H139.665V53.1519H139.798V53.6853H139.932V54.2186H140.065V54.7519H140.198V55.4185H140.332V55.9519H140.465V56.6185H140.598V57.2852H140.732V57.9518H140.865V58.7518H140.998V59.5518H141.132V60.3518H141.265V61.1517H141.398V62.3517H141.531V63.4183H141.665V64.7516H141.798V66.7516H141.931V70.7515H142.065V71.8181H141.931V75.418H141.798V77.1513H141.665V78.618H141.531V79.6846H141.398V80.7512H141.265V81.8179H141.132V82.4845H140.998V83.2845H140.865V84.0845H140.732V84.7511H140.598V85.4178H140.465V86.0844H140.332V86.6178H140.198V87.1511H140.065V87.8177H139.932V88.3511H139.798V88.8844H139.665V89.4177H139.532V89.8177H139.398V90.351H139.265V90.751H139.132V91.2843H138.998V91.6843H138.865V92.0843H138.732V92.4843H138.598V92.8843H138.465V93.2843H138.332V93.6843H138.198V94.0842H138.065V94.4842H137.932V94.8842H137.798V95.2842H137.665V95.6842H137.532V95.9509H137.398V96.3509H137.265V96.6175H137.132V97.0175H136.998V97.4175H136.865V97.6842H136.732V98.0841H136.598V98.3508H136.465V98.7508H136.332V99.0175H136.198V99.2841H136.065V99.5508H135.932V99.8174H135.798V100.217H135.665V100.484H135.532V100.751H135.398V101.017H135.265V101.284H135.132V101.684H134.998V101.951H134.865V102.217H134.732V102.484H134.598V102.751H134.465V103.017H134.332V103.151H134.198V103.417H134.065V103.684H133.932V103.951H133.798V104.217H133.665V104.484H133.532V104.751H133.398V105.017H133.265V105.284H133.132V105.551H132.998V105.684H132.865V105.951H132.732V106.217H132.598V106.484H132.465V106.617H132.332V106.884H132.198V107.151H132.065V107.417H131.932V107.551H131.798V107.817H131.665V108.084H131.532V108.217H131.398V108.484H131.265V108.617H131.132V108.884H130.998V109.151H130.865V109.284H130.732V109.551H130.598V109.684H130.465V109.951H130.332V110.084H130.198V110.35H130.065V110.484H129.932V110.75H129.798V110.884H129.665V111.15H129.532V111.284H129.398V111.55H129.265V111.684H129.132V111.817H128.998V112.084H128.865V112.217H128.732V112.35H128.598V112.617H128.465V112.75H128.332V113.017H128.198V113.15H128.065V113.284H127.932V113.55H127.799V113.684H127.665V113.95H127.532V114.084H127.399V114.217H127.265V114.35H127.132V114.617H126.999V114.75H126.865V114.884H126.732V115.017H126.599V115.284H126.465V115.417H126.332V115.55H126.199V115.684H126.065V115.95H125.932V116.084H125.799V116.217H125.665V116.35H125.532V116.617H125.399V116.75H125.265V116.884H125.132V117.017H124.999V117.15H124.865V117.417H124.732V117.55H124.599V117.684H124.465V117.817H124.332V117.95H124.199V118.084H124.065V118.217H123.932V118.35H123.799V118.617H123.665V118.75H123.532V118.884H123.399V119.017H123.265V119.15H123.132V119.284H122.999V119.417H122.865V119.55H122.732V119.684H122.599V119.817H122.465V119.95H122.332V120.084H122.199V120.217H122.065V120.35H121.932V120.617H121.799V120.75H121.665V120.884H121.532V121.017H121.399V121.15H121.265V121.284H121.132V121.417H120.999V121.55H120.865V121.684H120.732V121.817H120.599V121.95H120.465V122.084H120.332V122.217H120.199V122.35H119.932V122.484H119.799V122.617H119.665V122.75H119.532V122.884H119.399V123.017H119.265V123.15H119.132V123.284H118.999V123.417H118.865V123.55H118.732V123.683H118.599V123.817H118.465V123.95H118.199V124.083H118.065V124.217H117.932V124.35H117.799V124.483H117.665V124.617H117.532V124.75H117.399V124.883H117.132V125.017H116.999V125.15H116.865V125.283H116.732V125.417H116.599V125.55H116.332V125.683H116.199V125.817H116.065V125.95H115.932V126.083H115.799V126.217H115.532V126.35H115.399V126.483H115.265V126.617H115.132V126.75H114.865V126.883H114.732V127.017H114.599V127.15H114.332V127.283H114.199V127.417H114.066V127.55H113.932V127.683H113.666V127.817H113.532V127.95H113.399V128.083H113.132V128.217H112.999V128.35H112.866V128.483H112.599V128.617H112.466V128.75H112.199V128.883H112.066V129.017H111.932V129.15H111.666V129.283H111.532V129.417H111.266V129.55H111.132V129.683H110.866V129.817H110.732V129.95H110.466V130.083H110.332V130.217H110.066V130.35H109.932V130.483H109.666V130.617H109.532V130.75H109.266V130.883H109.132V131.017H108.866V131.15H108.599V131.283H108.466V131.417H108.199V131.55H107.932V131.683H107.799V131.817H107.532V131.95H107.266V132.083H107.132V132.217H106.866V132.35H106.732V132.483H106.466V132.617H106.199V132.75H105.932V132.883H105.666V133.017H105.399V133.15H105.266V133.283H104.999V133.417H104.732V133.55H104.466V133.683H104.199V133.817H103.932V133.95H103.799V134.083H103.532V134.217H103.266V134.35H102.999V134.483H102.732V134.617H102.332V134.75H102.066V134.883H101.799V135.017H101.532V135.15H101.266V135.283H100.999V135.417H100.733V135.55H100.466V135.683H100.199V135.817H99.7992V135.95H99.5325V136.083H99.2659V136.217H98.8659V136.35H98.5992V136.483H98.3326V136.617H97.9326V136.75H97.6659V136.883H97.3993V137.016H96.9993V137.15H96.5993V137.283H96.1993V137.416H95.9326V137.55H95.5326V137.683H95.1327V137.816H94.866V137.95H94.466V138.083H94.066V138.216H93.666V138.35H93.266V138.483H92.866V138.616H92.4661V138.75H91.9327V138.883H91.5327V139.016H91.1328V139.15H90.7328V139.283H90.1994V139.416H89.6661V139.55H89.1328V139.683H88.7328V139.816H88.1995V139.95H87.6662V140.083H87.1329V140.216H86.4662V140.35H85.7996V140.483H85.2662V140.616H84.5996V140.75H83.9329V140.883H83.133V141.016H82.333V141.15H81.533V141.283H80.5997V141.416H79.3997V141.55H78.3331V141.683H76.8664V141.816H74.9998V141.95H66.7334ZM52.3337 128.217V128.35H56.067V128.217H56.8669V128.083H57.8003V127.95H58.2002V127.817H58.6002V127.683H59.0002V127.55H59.4002V127.417H59.8002V127.283H60.2002V127.15H60.4669V127.017H60.7335V126.883H61.0002V126.75H61.2668V126.617H61.5335V126.483H61.6668V126.35H61.9335V126.217H62.2001V126.083H62.4668V125.95H62.7335V125.817H62.8668V125.683H63.0001V125.55H63.2668V125.417H63.4001V125.283H63.5334V125.15H63.6668V125.017H63.9334V124.883H64.0668V124.75H64.2001V124.617H64.3334V124.483H64.4668V124.35H64.7334V124.217H64.8667V124.083H65.0001V123.95H65.1334V123.817H65.2667V123.683H65.4001V123.55H65.5334V123.417H65.6667V123.284H65.8001V123.017H65.9334V122.884H66.0667V122.75H66.2V122.617H66.3334V122.484H66.4667V122.35H66.6V122.217H66.7334V121.95H66.8667V121.817H67V121.55H67.1334V121.417H67.2667V121.284H67.4V121.017H67.5333V120.884H67.6667V120.617H67.8V120.484H67.9333V120.35H68.0667V120.084H68.2V119.95H68.3333V119.684H68.4667V119.55H68.6V119.417H68.7333V119.15H68.8666V119.017H69V118.75H69.1333V118.617H69.2666V118.484H69.4V118.217H69.5333V118.084H69.6666V117.817H69.8V117.684H69.9333V117.55H70.0666V117.284H70.1999V117.15H70.3333V116.884H70.4666V116.75H70.5999V116.617H70.7333V116.35H70.8666V116.217H70.9999V115.95H71.1333V115.817H71.2666V115.684H71.3999V115.417H71.5332V115.284H71.6666V115.017H71.7999V114.884H71.9332V114.75H72.0666V114.484H72.1999V114.35H72.3332V114.084H72.4666V113.95H72.5999V113.684H72.7332V113.55H72.8665V113.417H72.9999V113.15H73.1332V113.017H73.2665V112.75H73.3999V112.617H73.5332V112.484H73.6665V112.217H73.7999V112.084H73.9332V111.817H74.0665V111.684H74.1998V111.55H74.3332V111.284H74.4665V111.15H74.5998V110.884H74.7332V110.75H74.8665V110.617H74.9998V110.35H75.1332V110.217H75.2665V109.951H75.3998V109.817H75.5331V109.684H75.6665V109.417H75.7998V109.284H75.9331V109.017H76.0665V108.884H76.1998V108.751H76.3331V108.484H76.4665V108.351H76.5998V108.084H76.7331V107.951H76.8664V107.817H76.9998V107.551H77.1331V107.417H77.2664V107.151H77.3998V107.017H77.5331V106.884H77.6664V106.617H77.7998V106.484H77.9331V106.217H78.0664V106.084H78.1997V105.951H78.3331V105.684H78.4664V105.551H78.5997V105.284H78.7331V105.151H78.8664V105.017H78.9997V104.751H79.1331V104.617H79.2664V104.351H79.3997V104.217H79.533V104.084H79.6664V103.817H79.7997V103.684H79.933V103.417H80.0664V103.284H80.1997V103.151H80.333V102.884H80.4664V102.751H80.5997V102.484H80.733V102.351H80.8663V102.217H80.9997V101.951H81.133V101.817H81.2663V101.551H81.3997V101.417H81.533V101.151H81.6663V101.017H81.7997V100.884H81.933V100.617H82.0663V100.484H82.1996V100.217H82.333V100.084H82.4663V99.9508H82.5996V99.6841H82.733V99.5508H82.8663V99.2841H82.9996V99.1508H83.133V99.0175H83.2663V98.7508H83.3996V98.6175H83.5329V98.3508H83.6663V98.2175H83.7996V98.0841H83.9329V97.8175H84.0663V97.6842H84.1996V97.4175H84.3329V97.2842H84.4663V97.1508H84.5996V96.8842H84.7329V96.7508H84.8662V96.4842H84.9996V96.3509H85.1329V96.2175H85.2662V95.9509H85.3996V95.8175H85.5329V95.5509H85.6662V95.4175H85.7996V95.2842H85.9329V95.0176H86.0662V94.8842H86.1995V94.6176H86.3329V94.4842H86.4662V94.3509H86.5995V94.0842H86.7329V93.9509H86.8662V93.6843H86.9995V93.5509H87.1329V93.4176H87.2662V93.1509H87.3995V93.0176H87.5328V92.7509H87.6662V92.6176H87.7995V92.4843H87.9328V92.2176H88.0662V92.0843H88.1995V91.8176H88.3328V91.6843H88.4662V91.551H88.5995V91.2843H88.7328V91.151H88.8661V90.8843H88.9995V90.751H89.1328V90.6177H89.2661V90.351H89.3995V90.2177H89.5328V89.951H89.6661V89.8177H89.7995V89.551H89.9328V89.4177H90.0661V89.2844H90.1994V89.0177H90.3328V88.8844H90.4661V88.6177H90.5994V88.4844H90.7328V88.3511H90.8661V88.0844H90.9994V87.9511H91.1328V87.6844H91.2661V87.5511H91.3994V87.4177H91.5327V87.1511H91.6661V87.0178H91.7994V86.7511H91.9327V86.6178H92.0661V86.4844H92.1994V86.2178H92.3327V86.0844H92.4661V85.8178H92.5994V85.6845H92.7327V85.5511H92.866V85.2845H92.9994V85.1511H93.1327V84.8845H93.266V84.7511H93.3994V84.6178H93.5327V84.3512H93.666V84.2178H93.7994V83.9512H93.9327V83.8178H94.066V83.6845H94.1993V83.4178H94.3327V83.2845H94.466V83.0179H94.5993V82.8845H94.7327V82.7512H94.866V82.4845H94.9993V82.3512H95.1327V82.0845H95.266V81.9512H95.3993V81.8179H95.5326V81.5512H95.666V81.4179H95.7993V81.1512H95.9326V81.0179H96.066V80.8846H96.1993V80.6179H96.3326V80.4846H96.466V80.2179H96.5993V80.0846H96.7326V79.9513H96.8659V79.6846H96.9993V79.5513H97.1326V79.2846H97.2659V79.1513H97.3993V79.018H97.5326V78.7513H97.6659V78.618H97.7993V78.3513H97.9326V78.218H98.0659V77.9513H98.1992V77.818H98.3326V77.6847H98.4659V77.418H98.5992V77.2847H98.7326V77.018H98.8659V76.8847H98.9992V76.7513H99.1326V76.4847H99.2659V76.3514H99.3992V76.0847H99.5325V75.9514H99.6659V75.818H99.7992V75.5514H99.9325V75.418H100.066V75.1514H100.199V75.0181H100.333V74.8847H100.466V74.6181H100.599V74.4847H100.733V74.2181H100.866V74.0847H100.999V73.9514H101.133V73.6848H101.266V73.5514H101.399V73.2848H101.532V73.1514H101.666V73.0181H101.799V72.7514H101.932V72.6181H102.066V72.3515H102.199V72.2181H102.332V71.9515H102.466V71.6848H102.599V71.5515H102.732V71.2848H102.866V71.1515H102.999V70.8848H103.132V70.6182H103.266V70.4848H103.399V70.2182H103.532V70.0848H103.666V69.8182H103.799V69.6849H103.932V69.4182H104.066V69.1515H104.199V68.8849H104.332V68.6182H104.466V68.4849H104.599V68.2182H104.732V67.9516H104.866V67.6849H104.999V67.4182H105.132V67.1516H105.266V66.8849H105.399V66.6183H105.532V66.3516H105.666V66.0849H105.799V65.8183H105.932V65.5516H106.066V65.285H106.199V65.1516H106.332V64.7516H106.466V64.485H106.599V64.085H106.732V63.8183H106.866V63.4183H106.999V63.1517H107.132V62.7517H107.266V62.485H107.399V62.085H107.532V61.8184H107.666V61.4184H107.799V61.1517H107.932V60.7517H108.066V60.3518H108.199V59.8184H108.332V59.4184H108.466V58.8851H108.599V58.4851H108.732V57.9518H108.866V57.4185H108.999V57.0185H109.132V56.4852H109.266V55.5519H109.399V54.7519H109.532V53.8186H109.666V53.0186H109.799V50.6187H109.932V48.2187H109.799V46.6188H109.666V45.1521H109.532V44.6188H109.399V43.9522H109.266V43.2855H109.132V42.6189H108.999V42.0855H108.866V41.5522H108.732V41.1522H108.599V40.7522H108.466V40.3523H108.332V39.9523H108.199V39.5523H108.066V39.1523H107.932V38.8856H107.799V38.4856H107.666V38.219H107.532V37.9523H107.399V37.6857H107.266V37.2857H107.132V37.019H106.999V36.7523H106.866V36.4857H106.732V36.219H106.599V35.9524H106.466V35.6857H106.332V35.419H106.199V35.1524H106.066V35.0191H105.932V34.7524H105.799V34.6191H105.666V34.3524H105.532V34.0857H105.399V33.9524H105.266V33.6858H105.132V33.5524H104.999V33.2858H104.866V33.1524H104.732V32.8858H104.599V32.6191H104.466V32.4858H104.332V32.3525H104.199V32.0858H104.066V31.9525H103.932V31.8191H103.799V31.6858H103.666V31.4191H103.532V31.2858H103.399V31.1525H103.266V31.0192H103.132V30.8858H102.999V30.6192H102.866V30.4858H102.732V30.3525H102.599V30.0858H102.466V29.9525H102.332V29.8192H102.199V29.6859H102.066V29.5525H101.932V29.4192H101.799V29.2859H101.666V29.1525H101.532V29.0192H101.399V28.8859H101.266V28.7525H101.133V28.6192H100.999V28.4859H100.866V28.3526H100.733V28.2192H100.599V28.0859H100.466V27.9526H100.333V27.8192H100.199V27.6859H100.066V27.5526H99.9325V27.4192H99.6659V27.2859H99.5325V27.1526H99.3992V27.0193H99.2659V26.8859H98.9992V26.7526H98.8659V26.6193H98.7326V26.4859H98.5992V26.3526H98.4659V26.2193H98.1992V26.0859H98.0659V25.9526H97.9326V25.8193H97.7993V25.686H97.5326V25.5526H97.3993V25.4193H97.2659V25.286H96.9993V25.1526H96.7326V25.0193H96.5993V24.886H96.3326V24.7526H96.1993V24.6193H95.9326V24.486H95.7993V24.3527H95.5326V24.2193H95.3993V24.086H95.1327V23.9527H94.9993V23.8193H94.7327V23.686H94.466V23.5527H94.3327V23.4193H94.066V23.286H93.7994V23.1527H93.5327V23.0194H93.266V22.886H92.9994V22.7527H92.7327V22.6194H92.5994V22.486H92.1994V22.3527H91.9327V22.2194H91.6661V22.086H91.2661V21.9527H90.9994V21.8194H90.5994V21.6861H90.0661V21.5527H89.6661V21.4194H89.2661V21.2861H88.8661V21.1527H88.3328V21.0194H87.7995V20.8861H87.1329V20.7527H86.5995V20.6194H85.9329V20.4861H85.3996V20.3528H84.1996V20.2194H83.133V20.0861H81.133V19.9528H78.5997V20.0861H77.2664V20.2194H75.7998V20.3528H74.9998V20.4861H74.4665V20.6194H73.7999V20.7527H73.1332V20.8861H72.4666V21.0194H72.0666V21.1527H71.6666V21.2861H71.2666V21.4194H70.8666V21.5527H70.4666V21.6861H70.0666V21.8194H69.6666V21.9527H69.2666V22.086H68.8666V22.2194H68.6V22.3527H68.3333V22.486H68.0667V22.6194H67.8V22.7527H67.5333V22.886H67.2667V23.0194H66.8667V23.1527H66.6V23.286H66.3334V23.4193H66.0667V23.5527H65.8001V23.686H65.6667V23.8193H65.4001V23.9527H65.1334V24.086H65.0001V24.2193H64.7334V24.3527H64.6001V24.486H64.3334V24.6193H64.2001V24.7526H63.9334V24.886H63.6668V25.0193H63.5334V25.1526H63.2668V25.286H63.1335V25.4193H62.8668V25.5526H62.7335V25.686H62.6001V25.8193H62.3335V25.9526H62.2001V26.0859H62.0668V26.2193H61.9335V26.3526H61.6668V26.4859H61.5335V26.6193H61.4002V26.7526H61.2668V26.8859H61.1335V27.0193H60.8668V27.1526H60.7335V27.2859H60.6002V27.4192H60.4669V27.5526H60.2002V27.6859H60.0669V27.8192H59.9335V27.9526H59.8002V28.0859H59.6669V28.2192H59.5335V28.3526H59.4002V28.4859H59.2669V28.6192H59.1336V28.8859H59.0002V29.0192H58.8669V29.1525H58.7336V29.2859H58.6002V29.4192H58.4669V29.5525H58.3336V29.6859H58.2002V29.8192H58.0669V29.9525H57.9336V30.0858H57.8003V30.2192H57.6669V30.3525H57.5336V30.4858H57.4003V30.6192H57.2669V30.8858H57.1336V31.0192H57.0003V31.1525H56.8669V31.4191H56.7336V31.5525H56.6003V31.6858H56.467V31.9525H56.3336V32.0858H56.2003V32.2191H56.067V32.4858H55.9336V32.6191H55.8003V32.7524H55.667V32.8858H55.5336V33.1524H55.4003V33.2858H55.267V33.4191H55.1337V33.6858H55.0003V33.8191H54.867V34.0857H54.7337V34.3524H54.6003V34.4857H54.467V34.7524H54.3337V35.0191H54.2003V35.2857H54.067V35.419H53.9337V35.6857H53.8004V35.9524H53.667V36.0857H53.5337V36.3524H53.4004V36.619H53.267V36.7523H53.1337V37.019H53.0004V37.2857H52.867V37.5523H52.7337V37.819H52.6004V38.0856H52.4671V38.3523H52.3337V38.7523H52.2004V39.019H52.0671V39.2856H51.9337V39.5523H51.8004V39.9523H51.6671V40.2189H51.5337V40.4856H51.4004V40.7522H51.2671V41.0189H51.1338V41.4189H51.0004V41.6856H50.8671V42.0855H50.7338V42.4855H50.6004V42.8855H50.4671V43.2855H50.3338V43.6855H50.2004V44.0855H50.0671V44.4855H49.9338V44.8855H49.8005V45.2855H49.6671V45.6855H49.5338V46.0854H49.4005V46.6188H49.2671V47.1521H49.1338V47.8187H49.0005V48.3521H48.8671V48.8854H48.7338V49.4187H48.6005V49.952H48.4672V50.6187H48.3338V51.4186H48.2005V52.0853H48.0672V52.8853H47.9338V53.5519H47.8005V54.2186H47.6672V55.0186H47.5338V55.6852H47.4005V56.4852H47.2672V57.1518H47.1339V57.9518H47.0005V58.6185H46.8672V59.4184H46.7339V60.0851H46.6005V60.8851H46.4672V61.5517H46.3339V62.2184H46.2005V63.0184H46.0672V63.685H45.9339V64.485H45.8006V65.1516H45.6672V65.9516H45.5339V66.6183H45.4006V67.4182H45.2672V68.0849H45.1339V68.8849H45.0006V69.5515H44.8672V70.3515H44.7339V71.0182H44.6006V71.6848H44.4673V72.4848H44.3339V73.1514H44.2006V73.9514H44.0673V74.6181H43.9339V75.418H43.8006V76.0847H43.6673V76.8847H43.5339V77.5513H43.4006V78.3513H43.2673V79.018H43.134V79.8179H43.0006V80.4846H42.8673V81.1512H42.734V81.9512H42.6006V82.6179H42.4673V83.4178H42.334V84.0845H42.2006V84.8845H42.0673V85.5511H41.934V86.3511H41.8007V87.0178H41.6673V87.8177H41.534V88.4844H41.4007V89.2844H41.2673V89.951H41.134V90.6177H41.0007V91.4176H40.8673V92.0843H40.734V92.8843H40.6007V93.5509H40.4674V94.3509H40.334V95.0176H40.2007V95.8175H40.0674V96.4842H39.934V97.2842H39.8007V97.9508H39.6674V98.6175H39.534V99.4174H39.4007V100.084H39.2674V100.884H39.1341V101.551H39.0007V102.351H38.8674V103.017H38.7341V103.817H38.6007V104.484H38.4674V105.284H38.3341V105.951H38.2007V106.751H38.0674V107.417H37.9341V108.084H37.8008V108.884H37.6674V109.551H37.5341V110.884H37.4008V113.417H37.5341V115.017H37.6674V115.55H37.8008V116.084H37.9341V116.617H38.0674V117.017H38.2007V117.55H38.3341V117.95H38.4674V118.217H38.6007V118.484H38.7341V118.75H38.8674V119.017H39.0007V119.284H39.1341V119.55H39.2674V119.817H39.4007V120.084H39.534V120.35H39.6674V120.484H39.8007V120.75H39.934V120.884H40.0674V121.15H40.2007V121.284H40.334V121.417H40.4674V121.684H40.6007V121.817H40.734V121.95H40.8673V122.217H41.0007V122.35H41.134V122.484H41.2673V122.617H41.4007V122.75H41.534V122.884H41.6673V123.017H41.8007V123.15H41.934V123.284H42.0673V123.417H42.2006V123.55H42.334V123.683H42.4673V123.817H42.6006V123.95H42.734V124.083H42.8673V124.217H43.0006V124.35H43.134V124.483H43.4006V124.617H43.5339V124.75H43.8006V124.883H43.9339V125.017H44.0673V125.15H44.3339V125.283H44.4673V125.417H44.7339V125.55H44.8672V125.683H45.0006V125.817H45.2672V125.95H45.5339V126.083H45.8006V126.217H46.0672V126.35H46.3339V126.483H46.6005V126.617H46.7339V126.75H47.1339V126.883H47.4005V127.017H47.6672V127.15H48.0672V127.283H48.4672V127.417H48.8671V127.55H49.2671V127.683H49.6671V127.817H50.0671V127.95H50.8671V128.083H51.5337V128.217" fill="url(#paint0_radial_3582_130)"/>
</g>
<path d="M43.8481 142.198C28.6375 135.764 11.0962 142.875 4.66308 158.08C-1.77063 173.29 5.34439 190.835 20.5544 197.267C35.754 203.701 53.3036 196.587 59.7377 181.379C66.1699 166.173 59.0534 148.627 43.8481 142.198ZM26.2672 183.768C18.507 180.484 14.8811 171.546 18.1622 163.79C21.4408 156.042 30.3807 152.414 38.1373 155.696C45.8855 158.971 49.5166 167.92 46.2371 175.672C42.9585 183.427 34.0098 187.043 26.2672 183.768Z" fill="#EC0382"/>
<defs>
<radialGradient id="paint0_radial_3582_130" cx="0" cy="0" r="1" gradientUnits="userSpaceOnUse" gradientTransform="translate(60.6753 23.8256) rotate(-58.453) scale(105.741)">
<stop stop-color="#F799D1"/>
<stop offset="0.106741" stop-color="#F799D1"/>
<stop offset="0.651685" stop-color="#EC008C"/>
<stop offset="0.78914" stop-color="#EC008C"/>
<stop offset="1" stop-color="#9C0054"/>
</radialGradient>
</defs>
</svg>
